<svg width="48" height="48" viewBox="0 0 48 48" fill="none" xmlns="http://www.w3.org/2000/svg">
<g clip-path="url(#clip0_15_1420)">
<path d="M8 10C8 7.8 9.8 6 12 6C14.2 6 16 7.8 16 10C16 12.2 14.2 14 12 14C9.8 14 8 12.2 8 10ZM17.56 17.16C15.86 16.42 13.98 16 12 16C10.02 16 8.14 16.42 6.44 17.16C4.96 17.8 4 19.24 4 20.86V22H20V20.86C20 19.24 19.04 17.8 17.56 17.16ZM36 14C38.2 14 40 12.2 40 10C40 7.8 38.2 6 36 6C33.8 6 32 7.8 32 10C32 12.2 33.8 14 36 14ZM41.56 17.16C39.86 16.42 37.98 16 36 16C34.02 16 32.14 16.42 30.44 17.16C28.96 17.8 28 19.24 28 20.86V22H44V20.86C44 19.24 43.04 17.8 41.56 17.16ZM44 34L36 26V32H12V26L4 34L12 42V36H36V42L44 34Z" fill="#18D26E"/>
</g>
<defs>
<clipPath id="clip0_15_1420">
<rect width="48" height="48" fill="white"/>
</clipPath>
</defs>
</svg>
