<svg width="49" height="50" viewBox="0 0 49 50" fill="none" xmlns="http://www.w3.org/2000/svg">
<path d="M41.483 6.93937C40.8954 6.96492 40.3563 7.1339 39.8826 7.32058C39.4451 7.49291 37.8737 8.15335 35.3716 9.20282C32.8695 10.2523 29.554 11.6438 26.02 13.1301C18.9519 16.1028 11.0093 19.4467 6.93945 21.1594C6.79969 21.2177 6.23209 21.3914 5.60521 21.8702C4.97686 22.3502 4.2789 23.3917 4.2789 24.5308C4.2789 25.4497 4.7376 26.3855 5.2915 26.9213C5.84539 27.4571 6.40675 27.7076 6.87592 27.8942V27.8902C8.46182 28.522 13.1978 30.4172 14.3255 30.8685C14.7254 32.067 16.4425 37.1984 16.851 38.4887H16.847C17.1358 39.4021 17.4172 39.9973 17.808 40.4941C18.0034 40.7425 18.2367 40.9676 18.5228 41.1453C18.6326 41.2135 18.7541 41.2664 18.8762 41.3161C18.8932 41.3233 18.9107 41.3251 18.9278 41.332L18.8802 41.3201C18.9156 41.3343 18.9473 41.3553 18.9834 41.3677C19.0422 41.3879 19.083 41.3873 19.1621 41.4034C19.4407 41.4891 19.7187 41.5464 19.9762 41.5464C21.0814 41.5464 21.7591 40.9468 21.7591 40.9468L21.8028 40.915L26.5759 36.8765L32.4212 42.285C32.528 42.4358 33.3644 43.5676 35.3001 43.5676C36.4552 43.5676 37.3685 42.9959 37.9528 42.3962C38.537 41.7965 38.901 41.1829 39.0646 40.3511L39.0686 40.3472C39.1991 39.6759 44.7947 11.5775 44.7947 11.5775L44.7828 11.6251C44.957 10.8478 45.0084 10.096 44.8027 9.32989C44.597 8.56379 44.0417 7.81616 43.3731 7.42383C42.7045 7.03149 42.0705 6.91381 41.483 6.93937ZM40.6808 11.3908C40.4597 12.501 35.4471 37.6835 35.1373 39.2631L26.695 31.4522L20.9888 36.2769L22.5692 30.0981C22.5692 30.0981 33.472 19.0619 34.1287 18.4195C34.6573 17.9051 34.768 17.7248 34.768 17.5458C34.768 17.308 34.6456 17.1368 34.363 17.1368C34.1089 17.1368 33.7637 17.3804 33.5807 17.4942C31.2555 18.9439 21.3519 24.5876 16.4817 27.3581C16.1886 27.2406 11.7883 25.4736 9.41734 24.5268C13.6346 22.7519 20.8637 19.7104 27.5965 16.8787C31.1299 15.3926 34.4444 13.9999 36.9441 12.9514C39.0542 12.0664 40.1549 11.6081 40.6808 11.3908ZM35.0778 39.553H35.0817L35.0778 39.5649C35.0804 39.5517 35.0758 39.5633 35.0778 39.553Z" fill="#A7A1A1"/>
</svg>
